<svg xmlns="http://www.w3.org/2000/svg" width="369" height="169" viewBox="0 0 368.7 168.8"><style>.a{fill:#ffffff;}</style><polygon points="213.5 110.1 180.4 93.8 180.4 13.8 213.5 0 " class="a"/><polygon points="330.7 95.5 303 95.5 260.6 53.5 260.6 95.5 233.6 95.5 233.6 14.8 260.6 14.8 303.5 57.4 303.5 14.8 330.7 14.8 " class="a"/><polygon points="170.7 14.2 146.9 94.9 113.1 94.9 97.3 50.2 96.3 50.2 80.2 94.9 46.4 94.9 22.6 14.2 53.5 14.2 64.6 61 65.7 60.5 80.5 14.2 113.8 14.2 129.3 61.2 130.1 61.2 140.7 14.2 " class="a"/><polygon points="15.4 147.8 12.5 147.8 12.5 156.3 3.1 156.3 3.1 147.8 0.1 147.8 0.1 168.5 3.1 168.5 3.1 159 12.5 159 12.5 168.5 15.6 168.5 15.6 147.8 " class="a"/><path d="M27.6 158.3c0 6.2 3.8 10.5 9.3 10.5h0c4.8 0 9.6-3.4 9.6-10.9 0-6.2-3.8-10.4-9.3-10.4C31.6 147.5 27.6 152 27.6 158.3M30.7 158.3c0-4.1 2-8.2 6.3-8.2 4.3 0 6.3 4.2 6.3 8 0 4.1-1.9 8.2-6.3 8.2h0C32.9 166.3 30.7 162.2 30.7 158.3" class="a"/><path d="M77.7 147.8h-3.3c-0.2 0.1-3.8 9.9-3.8 9.9s-1.5 4.8-2 6.3c-0.3-0.9-1.9-6.3-1.9-6.3l-3.5-9.8 -3.5-0.1h-0.2l-1.4 20.6H61l0.5-8.9c0 0 0.2-5.7 0.4-8 0.4 1.4 2 7 2 7l3.3 9.6 2.2 0.1c0.2-0.1 3.7-9.9 3.7-9.9s1.8-5.5 2.3-6.9c0.1 1.4 0.3 7.9 0.3 7.9l0.5 9.1h2.9l-1.3-20.6H77.7" class="a"/><polygon points="103.5 147.8 92.4 147.8 92.4 168.5 104.2 168.5 104.2 165.9 95.4 165.9 95.4 159 103.2 159 103.2 156.4 95.4 156.4 95.4 150.4 103.7 150.4 103.7 147.8 " class="a"/><polygon points="136.6 147.8 133.8 147.8 133.8 168.5 136.8 168.5 136.8 147.8 " class="a"/><path d="M166 147.8h-2.6v8.7c0 0 0.2 6.6 0.3 7.7 -0.8-1.7-1.8-3.6-3.3-6l-6.5-10.3h-2.9 -0.2v20.6h2.8v-8.9c0 0-0.1-6.7-0.2-7.8 0.8 1.8 1.9 3.7 3.5 6.2l6.4 10.3 2.8 0.1h0.2v-20.6H166" class="a"/><path d="M179.4 153.2c0 2.7 1.7 4.6 5.5 5.9 2.7 1 3.7 2.1 3.7 3.8 0 2-1.5 3.3-4 3.3 -1.6 0-3.3-0.5-4.6-1.3l-0.2-0.1 -0.8 2.4c1.3 1 3.5 1.6 5.3 1.6 5.3 0 7.2-3.3 7.2-6 0-2.9-1.5-4.6-5.2-6.1 -3-1.1-3.9-2.1-3.9-3.7 0-1.4 1.1-2.9 3.6-2.9 2 0 3.4 0.7 3.7 0.9l0.2 0.1 0.8-2.5 -0.1-0.1c-0.5-0.3-2-1-4.5-1C182.2 147.5 179.4 149.8 179.4 153.2" class="a"/><path d="M204.6 148.1l-0.2 0v20.3h3v-8.1c0.4 0 1.9 0.2 1.9 0.2 2.7 0 4.9-0.8 6.3-2.3 1.1-1.1 1.6-2.6 1.6-4.4 0-1.8-0.7-3.3-1.9-4.4 -1.3-1.1-3.2-1.7-5.8-1.7C207.7 147.7 206 147.8 204.6 148.1M209.7 150.1c3 0 4.6 1.4 4.6 3.8 0 2.6-1.8 4.1-4.9 4.1 0 0-1.7-0.2-2-0.2v-7.5C207.6 150.3 209.7 150.1 209.7 150.1" class="a"/><polygon points="241.1 147.8 230 147.8 230 168.5 241.8 168.5 241.8 165.9 233 165.9 233 159 240.8 159 240.8 156.4 233 156.4 233 150.4 241.3 150.4 241.3 147.8 " class="a"/><path d="M253.2 158.3c0 6.4 4 10.5 10.2 10.5 2.6 0 4.5-0.5 5.4-1l0.1-0.1 -0.6-2.5 -0.2 0.1c-1 0.5-2.7 0.8-4.2 0.8 -4.7 0-7.6-3-7.6-8 0-5 3-8.2 7.7-8.2 2 0 3.4 0.5 4 0.8l0.2 0.1 0.8-2.5 -0.1-0.1c-0.4-0.2-2-0.9-4.9-0.9C257.5 147.5 253.2 151.8 253.2 158.3" class="a"/><polygon points="294.3 147.8 279.1 147.8 279.1 150.4 285.3 150.4 285.3 168.5 288.3 168.5 288.3 150.4 294.5 150.4 294.5 147.8 " class="a"/><polygon points="308.8 147.8 305.9 147.8 305.9 168.5 309 168.5 309 147.8 " class="a"/><path d="M321.6 158.3c0 6.2 3.8 10.5 9.3 10.5h0c4.8 0 9.6-3.4 9.6-10.9 0-6.2-3.7-10.4-9.3-10.4C325.5 147.5 321.6 152 321.6 158.3M324.7 158.3c0-4.1 2-8.2 6.3-8.2 4.3 0 6.3 4.2 6.3 8 0 4.1-2 8.2-6.3 8.2h0C326.8 166.3 324.7 162.2 324.7 158.3" class="a"/><path d="M365.8 147.8v8.7c0 0 0.1 5.6 0.1 6.7 0 0-1.6-2.6-3.2-5.1l-6.5-10.4 -3 0h-0.2v20.6h2.8v-8.9c0 0-0.1-6.7-0.2-7.8 1.1 2.3 2.5 4.6 3.5 6.2l6.5 10.3 2.9 0v-20.6H365.8" class="a"/><line y1="133.2" x2="368.6" y2="133.2" class="a"/><rect y="132.5" width="368.6" height="1.5" class="a"/><path d="M344.6 14.9c3.7 0 6.7 3 6.7 6.8 0 3.8-3 6.8-6.7 6.8 -3.7 0-6.8-3-6.8-6.8C337.8 18 340.9 14.9 344.6 14.9L344.6 14.9M344.6 16c-3 0-5.4 2.6-5.4 5.7 0 3.2 2.5 5.8 5.5 5.8 3 0 5.4-2.5 5.4-5.8C350.1 18.6 347.6 16 344.6 16L344.6 16zM343.3 25.7h-1.2v-7.6c0.6-0.1 1.2-0.2 2.1-0.2 1.2 0 1.9 0.2 2.4 0.6 0.5 0.3 0.7 0.8 0.7 1.6 0 1-0.7 1.6-1.5 1.8V22c0.7 0.1 1.1 0.7 1.3 1.8 0.2 1.2 0.4 1.6 0.5 1.9h-1.3c-0.2-0.2-0.4-0.9-0.5-1.9 -0.2-1-0.7-1.3-1.6-1.3h-0.8V25.7zM343.3 21.5h0.9c1 0 1.8-0.4 1.8-1.3 0-0.7-0.5-1.3-1.8-1.3 -0.4 0-0.7 0-0.9 0.1V21.5z" class="a"/></svg>
